<svg width="176" height="35" viewBox="0 0 176 35" fill="none" xmlns="http://www.w3.org/2000/svg">
<g clip-path="url(#clip0_1_215)">
<path d="M42.1421 31.9873C42.1421 32.5826 42.0222 33.1028 41.7823 33.5479C41.5424 33.9875 41.1882 34.3297 40.7196 34.5745C40.2566 34.8137 39.6988 34.9333 39.0462 34.9333H37.1719V29.0496H39.0462C39.6988 29.0496 40.2566 29.1692 40.7196 29.4085C41.1882 29.6421 41.5424 29.9815 41.7823 30.4266C42.0222 30.8661 42.1421 31.3864 42.1421 31.9873ZM38.9876 34.249C39.7574 34.249 40.3459 34.0515 40.7531 33.6564C41.1603 33.2614 41.3639 32.705 41.3639 31.9873C41.3639 31.2695 41.1603 30.7132 40.7531 30.3181C40.3515 29.9175 39.763 29.7172 38.9876 29.7172H37.9334V34.249H38.9876Z" fill="#252B33"/>
<path d="M47.0268 29.6672V31.6785H49.2693V32.2627H47.0268V34.3157H49.5202V34.9333H46.2654V29.0496H49.5202V29.6672H47.0268Z" fill="#252B33"/>
<path d="M54.3554 34.3408H56.4472V34.9333H53.5939V29.0496H54.3554V34.3408Z" fill="#252B33"/>
<path d="M61.0792 29.0496V34.9333H60.3178V29.0496H61.0792Z" fill="#252B33"/>
<path d="M65.7841 29.0496L67.5831 34.0904L69.4071 29.0496H70.2355L68.0684 34.9333H67.1062L64.9474 29.0496H65.7841Z" fill="#252B33"/>
<path d="M74.8622 29.6672V31.6785H77.1043V32.2627H74.8622V34.3157H77.3552V34.9333H74.1002V29.0496H77.3552V29.6672H74.8622Z" fill="#252B33"/>
<path d="M84.5585 34.9333L83.019 32.5298H82.1906V34.9333H81.4293V29.0496H83.3703C84.0396 29.0496 84.5415 29.2109 84.8765 29.5336C85.2109 29.8508 85.3784 30.2736 85.3784 30.8022C85.3784 31.2807 85.2448 31.6674 84.9769 31.9623C84.709 32.2516 84.321 32.4324 83.8135 32.5047L85.4201 34.9333H84.5585ZM82.1906 31.9789H83.3031C84.1676 31.9789 84.6002 31.6006 84.6002 30.8439C84.6002 30.0872 84.1676 29.7089 83.3031 29.7089H82.1906V31.9789Z" fill="#252B33"/>
<path d="M93.5952 29.0496L91.6621 32.705V34.9333H90.8923V32.705L88.9514 29.0496H89.8384L91.286 31.8955L92.7251 29.0496H93.5952Z" fill="#252B33"/>
<path d="M105.324 28.9744C105.871 28.9744 106.362 29.1023 106.797 29.3582C107.238 29.6142 107.584 29.9731 107.835 30.4348C108.086 30.8911 108.211 31.4085 108.211 31.9872C108.211 32.5659 108.086 33.086 107.835 33.5478C107.584 34.0041 107.238 34.3602 106.797 34.6161C106.362 34.872 105.871 35 105.324 35C104.778 35 104.282 34.872 103.835 34.6161C103.395 34.3602 103.049 34.0041 102.797 33.5478C102.546 33.086 102.421 32.5659 102.421 31.9872C102.421 31.4085 102.546 30.8911 102.797 30.4348C103.049 29.9731 103.395 29.6142 103.835 29.3582C104.282 29.1023 104.778 28.9744 105.324 28.9744ZM105.324 29.6837C104.917 29.6837 104.552 29.7783 104.229 29.9675C103.911 30.1511 103.66 30.4182 103.475 30.7687C103.297 31.1136 103.207 31.5198 103.207 31.9872C103.207 32.449 103.297 32.8552 103.475 33.2057C103.66 33.5562 103.911 33.8261 104.229 34.0152C104.552 34.1988 104.917 34.2906 105.324 34.2906C105.727 34.2906 106.086 34.196 106.404 34.0069C106.727 33.8177 106.978 33.5506 107.157 33.2057C107.341 32.8552 107.433 32.449 107.433 31.9872C107.433 31.5198 107.341 31.1136 107.157 30.7687C106.978 30.4182 106.727 30.1511 106.404 29.9675C106.086 29.7783 105.727 29.6837 105.324 29.6837Z" fill="#252B33"/>
<path d="M116.922 34.9333H116.16L113.098 30.2847V34.9333H112.337V29.0496H113.098L116.16 33.7065V29.0496H116.922V34.9333Z" fill="#252B33"/>
<path d="M131.375 31.9873C131.375 32.5826 131.256 33.1028 131.015 33.5479C130.776 33.9875 130.422 34.3297 129.953 34.5745C129.49 34.8137 128.932 34.9333 128.279 34.9333H126.405V29.0496H128.279C128.932 29.0496 129.49 29.1692 129.953 29.4085C130.422 29.6421 130.776 29.9815 131.015 30.4266C131.256 30.8661 131.375 31.3864 131.375 31.9873ZM128.221 34.249C128.99 34.249 129.579 34.0515 129.986 33.6564C130.393 33.2614 130.597 32.705 130.597 31.9873C130.597 31.2695 130.393 30.7132 129.986 30.3181C129.585 29.9175 128.996 29.7172 128.221 29.7172H127.167V34.249H128.221Z" fill="#252B33"/>
<path d="M136.26 29.6672V31.6785H138.503V32.2627H136.26V34.3157H138.754V34.9333H135.499V29.0496H138.754V29.6672H136.26Z" fill="#252B33"/>
<path d="M148.734 29.1497V34.9333H147.973V30.318L146.124 34.9333H145.446L143.588 30.3348V34.9333H142.827V29.1497H143.739L145.797 34.0069L147.822 29.1497H148.734Z" fill="#252B33"/>
<path d="M156.504 33.5729H153.91L153.416 34.9332H152.596L154.78 29.158H155.642L157.818 34.9332H156.998L156.504 33.5729ZM156.287 32.9803L155.207 30.0092L154.128 32.9803H156.287Z" fill="#252B33"/>
<path d="M166.269 34.9333H165.508L162.446 30.2847V34.9333H161.684V29.0496H162.446L165.508 33.7065V29.0496H166.269V34.9333Z" fill="#252B33"/>
<path d="M175.56 31.9873C175.56 32.5826 175.44 33.1028 175.2 33.5479C174.96 33.9875 174.606 34.3297 174.138 34.5745C173.675 34.8137 173.117 34.9333 172.464 34.9333H170.59V29.0496H172.464C173.117 29.0496 173.675 29.1692 174.138 29.4085C174.606 29.6421 174.96 29.9815 175.2 30.4266C175.44 30.8661 175.56 31.3864 175.56 31.9873ZM172.405 34.249C173.176 34.249 173.764 34.0515 174.171 33.6564C174.578 33.2614 174.781 32.705 174.781 31.9873C174.781 31.2695 174.578 30.7132 174.171 30.3181C173.769 29.9175 173.18 29.7172 172.405 29.7172H171.351V34.249H172.405Z" fill="#252B33"/>
<path d="M37.1694 20.5128V0H45.5616C47.0785 0 48.5068 0.273504 49.8464 0.820512C51.186 1.34798 52.3384 2.07082 53.3037 2.98901C54.2888 3.9072 55.0669 5.00122 55.6382 6.27106C56.2095 7.52136 56.4951 8.86935 56.4951 10.315C56.4951 11.7216 56.2095 13.05 55.6382 14.3004C55.0669 15.5506 54.2888 16.6349 53.3037 17.5531C52.3384 18.4713 51.186 19.1941 49.8464 19.7216C48.5068 20.249 47.0785 20.5128 45.5616 20.5128H37.1694ZM45.4434 4.45421H42.252V16.0586H45.4434C46.2511 16.0586 47.0096 15.9121 47.7188 15.619C48.428 15.326 49.0387 14.9255 49.5508 14.4176C50.0828 13.8901 50.4965 13.2747 50.792 12.5714C51.0875 11.8681 51.2352 11.116 51.2352 10.315C51.2352 9.49452 51.0875 8.73257 50.792 8.02928C50.4965 7.30646 50.0828 6.68132 49.5508 6.15384C49.0387 5.62637 48.428 5.21611 47.7188 4.92307C47.0096 4.6105 46.2511 4.45421 45.4434 4.45421Z" fill="#71AA38"/>
<path d="M59.1877 20.5128V0H75.4998V4.3663H64.2703V8.05861H75.5712V12.2783H64.2703V16.1465H75.6178V20.5128H59.1877Z" fill="#71AA38"/>
<path d="M107.275 9.99997C107.275 11.3673 107.008 12.6616 106.474 13.8831C105.94 15.0862 105.213 16.1345 104.293 17.0278C103.372 17.9028 102.277 18.5956 101.007 19.1061C99.7369 19.6165 98.384 19.8717 96.9477 19.8717C95.5121 19.8717 94.1593 19.6165 92.8891 19.1061C91.619 18.5956 90.5234 17.9028 89.6031 17.0278C88.6828 16.1345 87.9555 15.0862 87.4218 13.8831C86.8874 12.6616 86.621 11.3673 86.621 9.99997C86.621 8.63266 86.8874 7.34746 87.4218 6.14422C87.9555 4.92278 88.6828 3.87453 89.6031 2.99947C90.5234 2.10618 91.619 1.4043 92.8891 0.893851C94.1593 0.383399 95.5121 0.128174 96.9477 0.128174C98.384 0.128174 99.7369 0.383399 101.007 0.893851C102.277 1.4043 103.372 2.10618 104.293 2.99947C105.213 3.87453 105.94 4.92278 106.474 6.14422C107.008 7.34746 107.275 8.63266 107.275 9.99997ZM102.387 9.99997C102.387 9.21604 102.25 8.48685 101.973 7.81233C101.697 7.11954 101.311 6.52706 100.813 6.03484C100.335 5.54262 99.7644 5.15978 99.1014 4.88632C98.4391 4.59463 97.721 4.44879 96.9477 4.44879C96.1744 4.44879 95.457 4.59463 94.794 4.88632C94.1317 5.15978 93.5514 5.54262 93.0545 6.03484C92.576 6.52706 92.1985 7.11954 91.9222 7.81233C91.6465 8.48685 91.508 9.21604 91.508 9.99997C91.508 10.7839 91.6465 11.5222 91.9222 12.215C92.1985 12.8895 92.576 13.4729 93.0545 13.9651C93.5514 14.4573 94.1317 14.8493 94.794 15.141C95.457 15.4144 96.1744 15.5511 96.9477 15.5511C97.721 15.5511 98.4391 15.4144 99.1014 15.141C99.7644 14.8493 100.335 14.4573 100.813 13.9651C101.311 13.4729 101.697 12.8895 101.973 12.215C102.25 11.5222 102.387 10.7839 102.387 9.99997Z" fill="#71AA38"/>
<path d="M109.8 0.428955H114.273L123.054 11.5313V0.428955H127.527V19.5709H123.33L114.273 8.03106V19.5709H109.8V0.428955Z" fill="#71AA38"/>
<path d="M138.501 19.8717V0.128174H146.59C148.052 0.128174 149.428 0.391421 150.72 0.917917C152.011 1.42561 153.121 2.12134 154.052 3.00509C155.001 3.88886 155.751 4.94184 156.301 6.16407C156.852 7.36748 157.128 8.66493 157.128 10.0564C157.128 11.4102 156.852 12.6889 156.301 13.8922C155.751 15.0957 155.001 16.1392 154.052 17.023C153.121 17.9068 152.011 18.6025 150.72 19.1102C149.428 19.6179 148.052 19.8717 146.59 19.8717H138.501ZM146.476 4.41535H143.4V15.5846H146.476C147.255 15.5846 147.986 15.4435 148.669 15.1615C149.353 14.8795 149.941 14.494 150.435 14.0051C150.947 13.4974 151.346 12.9051 151.631 12.2281C151.916 11.5512 152.058 10.8273 152.058 10.0564C152.058 9.26665 151.916 8.53333 151.631 7.85636C151.346 7.16063 150.947 6.55894 150.435 6.05125C149.941 5.54355 149.353 5.14868 148.669 4.86663C147.986 4.56578 147.255 4.41535 146.476 4.41535Z" fill="#71AA38"/>
<path d="M159.722 19.8717V0.128174H175.444V4.33074H164.621V7.88457H175.394V11.9461H164.621V15.6692H175.558V19.8717H159.722Z" fill="#71AA38"/>
<path d="M82.6076 9.87171C82.6076 10.7214 81.9121 11.4102 81.0547 11.4102C80.1966 11.4102 79.5011 10.7214 79.5011 9.87171C79.5011 9.02205 80.1966 8.33325 81.0547 8.33325C81.9121 8.33325 82.6076 9.02205 82.6076 9.87171Z" fill="#71AA38"/>
<path d="M134.519 9.87171C134.519 10.7214 133.824 11.4102 132.966 11.4102C132.107 11.4102 131.412 10.7214 131.412 9.87171C131.412 9.02205 132.107 8.33325 132.966 8.33325C133.824 8.33325 134.519 9.02205 134.519 9.87171Z" fill="#71AA38"/>
<path fill-rule="evenodd" clip-rule="evenodd" d="M0.991947 0C0.44411 0 0 0.439821 0 0.982366V17.921L3.34077 15.591L1.06068 14.2464C0.751287 14.064 0.588142 13.7096 0.65133 13.3572C0.714517 13.0048 0.990774 12.7285 1.34448 12.6638L13.7935 10.3884C14.0709 10.3377 14.3557 10.4252 14.556 10.6228C14.7564 10.8204 14.8471 11.103 14.7988 11.3796L12.5969 23.9788C12.5351 24.3326 12.2586 24.6107 11.9038 24.6758C11.5491 24.7409 11.1911 24.5794 11.0065 24.271L9.46053 21.6875L0.568719 34.9063C0.697085 34.9664 0.840552 35 0.991947 35H11.6414C21.4006 35 29.3121 27.165 29.3121 17.5C29.3121 7.83503 21.4007 0 11.6414 0H0.991947ZM0 32.6663L8.78657 19.604C8.95119 19.3593 9.23024 19.2158 9.52591 19.2235C9.82158 19.2313 10.0926 19.3894 10.244 19.6423L11.2968 21.4016L12.8875 12.2993L3.92127 13.9381L5.36959 14.7922C5.62158 14.9408 5.78055 15.2066 5.79173 15.4979C5.8029 15.7892 5.66475 16.0663 5.42488 16.2335L1.60338 18.8987L0 20.017V32.6663Z" fill="#71AA38"/>
</g>
<defs>
<clipPath id="clip0_1_215">
<rect width="176" height="35" fill="white"/>
</clipPath>
</defs>
</svg>
