<svg width="265" height="120" viewBox="0 0 265 120" fill="none" xmlns="http://www.w3.org/2000/svg">
<g filter="url(#filter0_d_1_314)">
<rect x="30" y="26" width="205" height="60" rx="10" fill="white"/>
</g>
<path d="M74.5748 54.2443C74.5934 52.8228 74.9766 51.429 75.6887 50.1926C76.4008 48.9562 77.4187 47.9174 78.6477 47.1728C77.867 46.074 76.837 45.1698 75.6395 44.5318C74.4421 43.8939 73.1102 43.5399 71.7496 43.498C68.8474 43.1978 66.0337 45.2095 64.5547 45.2095C63.0472 45.2095 60.7701 43.5278 58.3179 43.5776C56.7319 43.6281 55.1862 44.0826 53.8314 44.8968C52.4766 45.711 51.359 46.8571 50.5873 48.2235C47.2446 53.9263 49.738 62.3073 52.9399 66.9172C54.5418 69.1744 56.4141 71.6958 58.8639 71.6064C61.2612 71.5085 62.1567 70.1 65.0503 70.1C67.9173 70.1 68.7573 71.6064 71.2568 71.5496C73.8293 71.5085 75.4502 69.2824 76.9958 67.0037C78.1469 65.3953 79.0326 63.6176 79.6202 61.7366C78.1257 61.1137 76.8503 60.0711 75.9531 58.7388C75.0559 57.4064 74.5765 55.8433 74.5748 54.2443ZM69.8536 40.4664C71.2562 38.8072 71.9473 36.6745 71.7799 34.5212C69.637 34.7431 67.6577 35.7523 66.2362 37.3479C65.5411 38.1274 65.0088 39.0342 64.6696 40.0165C64.3304 40.9988 64.191 42.0374 64.2594 43.0728C65.3312 43.0837 66.3916 42.8548 67.3606 42.4033C68.3297 41.9518 69.1821 41.2895 69.8538 40.4663L69.8536 40.4664ZM103.336 66.1188H95.4693L93.5801 71.6159H90.2477L97.6994 51.2778H101.161L108.613 71.6159H105.224L103.336 66.1188ZM96.2841 63.582H102.52L99.4459 54.6607H99.3598L96.2841 63.582ZM124.706 64.2028C124.706 68.8105 122.203 71.771 118.426 71.771C117.469 71.8203 116.518 71.6031 115.681 71.1443C114.843 70.6855 114.154 70.0036 113.692 69.1767H113.62V76.5212H110.531V56.7878H113.521V59.2542H113.578C114.062 58.4312 114.762 57.7529 115.606 57.2913C116.45 56.8297 117.405 56.6021 118.369 56.6327C122.188 56.6327 124.706 59.6076 124.706 64.2026V64.2028ZM121.531 64.2028C121.531 61.2007 119.957 59.227 117.555 59.227C115.194 59.227 113.607 61.2421 113.607 64.2026C113.607 67.1904 115.194 69.1913 117.555 69.1913C119.957 69.1913 121.531 67.232 121.531 64.2026V64.2028ZM141.268 64.2028C141.268 68.8105 138.765 71.771 134.988 71.771C134.031 71.8203 133.08 71.6031 132.242 71.1443C131.405 70.6855 130.716 70.0036 130.254 69.1767H130.182V76.5212H127.093V56.7878H130.083V59.2542H130.14C130.623 58.4312 131.324 57.7529 132.168 57.2913C133.012 56.8297 133.967 56.6021 134.931 56.6327C138.75 56.6327 141.268 59.6076 141.268 64.2026V64.2028ZM138.093 64.2028C138.093 61.2007 136.519 59.227 134.116 59.227C131.756 59.227 130.169 61.2421 130.169 64.2026C130.169 67.1904 131.756 69.1913 134.116 69.1913C136.519 69.1913 138.093 67.232 138.093 64.2026V64.2028ZM152.213 65.9493C152.442 67.9661 154.43 69.2904 157.147 69.2904C159.75 69.2904 161.624 67.9661 161.624 66.1475C161.624 64.5688 160.494 63.6236 157.819 62.9759L155.144 62.3409C151.354 61.4388 149.595 59.6923 149.595 56.8581C149.595 53.349 152.698 50.9388 157.103 50.9388C161.466 50.9388 164.456 53.349 164.556 56.8581H161.439C161.252 54.8285 159.549 53.6033 157.061 53.6033C154.573 53.6033 152.87 54.843 152.87 56.647C152.87 58.085 153.958 58.931 156.618 59.5786L158.892 60.1289C163.126 61.1157 164.884 62.792 164.884 65.7667C164.884 69.5718 161.81 71.9549 156.918 71.9549C152.341 71.9549 149.251 69.6276 149.051 65.9491L152.213 65.9493ZM171.553 53.2789V56.7878H174.415V59.1982H171.553V67.3727C171.553 68.6426 172.126 69.2344 173.384 69.2344C173.724 69.2285 174.063 69.205 174.4 69.164V71.56C173.835 71.6641 173.26 71.7112 172.685 71.7006C169.638 71.7006 168.45 70.5731 168.45 67.6973V59.1982H166.262V56.7878H168.45V53.2789H171.553ZM176.071 64.2028C176.071 59.5372 178.859 56.6055 183.207 56.6055C187.57 56.6055 190.346 59.5372 190.346 64.2028C190.346 68.8809 187.585 71.7998 183.207 71.7998C178.831 71.7998 176.071 68.8809 176.071 64.2028ZM187.198 64.2028C187.198 61.0024 185.71 59.1133 183.207 59.1133C180.704 59.1133 179.216 61.0166 179.216 64.2028C179.216 67.4159 180.704 69.2904 183.207 69.2904C185.71 69.2904 187.198 67.4159 187.198 64.2028ZM192.892 56.7878H195.838V59.3117H195.909C196.109 58.5234 196.577 57.8268 197.237 57.3389C197.896 56.8511 198.705 56.6017 199.529 56.6327C199.885 56.6315 200.24 56.6696 200.587 56.7462V59.5932C200.138 59.4579 199.669 59.3958 199.199 59.4093C198.751 59.3913 198.303 59.4693 197.888 59.6378C197.473 59.8063 197.1 60.0614 196.794 60.3855C196.488 60.7096 196.257 61.095 196.117 61.5154C195.976 61.9358 195.93 62.3811 195.981 62.8208V71.6159H192.892V56.7878ZM214.828 67.2607C214.412 69.9526 211.752 71.7998 208.349 71.7998C203.971 71.7998 201.254 68.9098 201.254 64.273C201.254 59.622 203.986 56.6055 208.219 56.6055C212.382 56.6055 215 59.4237 215 63.9196V64.9624H204.372V65.1463C204.323 65.692 204.392 66.2418 204.576 66.7591C204.759 67.2764 205.051 67.7494 205.434 68.1466C205.817 68.5439 206.281 68.8563 206.796 69.0632C207.311 69.27 207.865 69.3666 208.42 69.3464C209.15 69.4138 209.883 69.2472 210.509 68.8714C211.135 68.4956 211.621 67.9307 211.895 67.2607H214.828ZM204.387 62.8352H211.91C211.938 62.3445 211.862 61.8535 211.688 61.3929C211.514 60.9323 211.245 60.5122 210.899 60.1588C210.552 59.8054 210.135 59.5264 209.674 59.3394C209.213 59.1523 208.718 59.0612 208.219 59.0717C207.716 59.0688 207.217 59.164 206.752 59.3519C206.286 59.5398 205.863 59.8167 205.507 60.1666C205.151 60.5165 204.868 60.9325 204.676 61.3905C204.484 61.8485 204.385 62.3395 204.387 62.8352ZM95.8978 35.9692C96.5454 35.9234 97.1952 36.0198 97.8003 36.2514C98.4055 36.4831 98.951 36.8442 99.3974 37.3087C99.8438 37.7733 100.18 38.3296 100.382 38.9377C100.584 39.5458 100.646 40.1904 100.564 40.8251C100.564 43.9471 98.8517 45.7417 95.8978 45.7417H92.3156V35.969L95.8978 35.9692ZM93.856 44.3596H95.7258C96.1885 44.3868 96.6515 44.3121 97.0812 44.1407C97.5109 43.9694 97.8964 43.7058 98.2097 43.3691C98.5229 43.0324 98.7561 42.6312 98.8921 42.1945C99.0282 41.7579 99.0637 41.2968 98.9962 40.8449C99.0588 40.3948 99.0197 39.9366 98.8816 39.5031C98.7434 39.0697 98.5097 38.6717 98.1971 38.3377C97.8846 38.0037 97.5009 37.742 97.0737 37.5713C96.6464 37.4005 96.1861 37.325 95.7258 37.3502H93.856V44.3596ZM102.304 42.051C102.257 41.5663 102.313 41.0773 102.469 40.6154C102.625 40.1534 102.877 39.7286 103.21 39.3683C103.542 39.0081 103.947 38.7202 104.399 38.5232C104.851 38.3262 105.339 38.2245 105.833 38.2245C106.327 38.2245 106.816 38.3262 107.268 38.5232C107.72 38.7202 108.125 39.0081 108.457 39.3683C108.789 39.7286 109.042 40.1534 109.198 40.6154C109.354 41.0773 109.41 41.5663 109.363 42.051C109.411 42.5362 109.355 43.026 109.2 43.4888C109.044 43.9516 108.792 44.3773 108.46 44.7384C108.128 45.0995 107.722 45.388 107.27 45.5855C106.817 45.783 106.328 45.885 105.833 45.885C105.339 45.885 104.849 45.783 104.397 45.5855C103.945 45.388 103.539 45.0995 103.207 44.7384C102.875 44.3773 102.622 43.9516 102.467 43.4888C102.312 43.026 102.256 42.5362 102.304 42.051ZM107.844 42.051C107.844 40.4523 107.115 39.5175 105.836 39.5175C104.552 39.5175 103.83 40.4523 103.83 42.051C103.83 43.6624 104.552 44.5901 105.836 44.5901C107.115 44.5901 107.844 43.656 107.844 42.051ZM118.746 45.7416H117.214L115.667 40.31H115.55L114.01 45.7416H112.492L110.429 38.3666H111.927L113.268 43.9941H113.378L114.917 38.3666H116.334L117.873 43.9941H117.99L119.324 38.3666H120.801L118.746 45.7416ZM122.536 38.3668H123.958V39.5383H124.068C124.255 39.1175 124.571 38.7647 124.971 38.5292C125.372 38.2936 125.837 38.187 126.301 38.2243C126.666 38.1973 127.031 38.2514 127.371 38.3826C127.711 38.5138 128.017 38.7187 128.266 38.9821C128.515 39.2455 128.7 39.5607 128.808 39.9044C128.917 40.248 128.945 40.6113 128.892 40.9673V45.7414H127.415V41.3328C127.415 40.1477 126.892 39.5583 125.8 39.5583C125.553 39.5469 125.306 39.5884 125.076 39.6799C124.847 39.7713 124.64 39.9105 124.47 40.0881C124.301 40.2656 124.172 40.4771 124.093 40.7083C124.014 40.9394 123.987 41.1846 124.013 41.4271V45.7416H122.536V38.3668ZM131.245 35.4877H132.722V45.7416H131.245V35.4877ZM134.775 42.051C134.728 41.5663 134.785 41.0772 134.941 40.6152C135.097 40.1531 135.349 39.7283 135.681 39.368C136.014 39.0076 136.419 38.7197 136.87 38.5227C137.322 38.3257 137.811 38.2239 138.305 38.2239C138.799 38.2239 139.288 38.3257 139.74 38.5227C140.192 38.7197 140.597 39.0076 140.929 39.368C141.262 39.7283 141.514 40.1531 141.67 40.6152C141.826 41.0772 141.882 41.5663 141.835 42.051C141.883 42.5361 141.827 43.0258 141.672 43.4884C141.516 43.9511 141.264 44.3766 140.931 44.7375C140.599 45.0985 140.194 45.3869 139.741 45.5843C139.289 45.7817 138.8 45.8836 138.305 45.8836C137.811 45.8836 137.321 45.7817 136.869 45.5843C136.417 45.3869 136.011 45.0985 135.679 44.7375C135.347 44.3766 135.094 43.9511 134.939 43.4884C134.783 43.0258 134.728 42.5361 134.775 42.051ZM140.315 42.051C140.315 40.4523 139.586 39.5175 138.307 39.5175C137.023 39.5175 136.301 40.4523 136.301 42.051C136.301 43.6624 137.023 44.5901 138.307 44.5901C139.586 44.5901 140.315 43.656 140.315 42.051ZM143.39 43.656C143.39 42.3284 144.393 41.5631 146.173 41.4543L148.201 41.3392V40.7026C148.201 39.9237 147.678 39.4839 146.669 39.4839C145.844 39.4839 145.273 39.7822 145.109 40.3036H143.679C143.83 39.0368 145.039 38.2244 146.737 38.2244C148.613 38.2244 149.671 39.1449 149.671 40.7026V45.7416H148.249V44.7052H148.132C147.895 45.0769 147.562 45.38 147.167 45.5834C146.772 45.7869 146.33 45.8834 145.885 45.8631C145.57 45.8953 145.253 45.8623 144.952 45.7661C144.652 45.67 144.375 45.5129 144.14 45.305C143.905 45.097 143.717 44.8428 143.588 44.5588C143.459 44.2748 143.391 43.9673 143.39 43.656ZM148.201 43.0258V42.4092L146.373 42.5243C145.342 42.5923 144.875 42.9378 144.875 43.5879C144.875 44.2517 145.459 44.638 146.263 44.638C146.498 44.6615 146.736 44.6381 146.962 44.5692C147.188 44.5002 147.398 44.3872 147.579 44.2368C147.759 44.0863 147.908 43.9016 148.014 43.6936C148.121 43.4855 148.185 43.2584 148.201 43.0258ZM151.612 42.051C151.612 39.7206 152.828 38.2444 154.719 38.2444C155.187 38.2232 155.651 38.3336 156.057 38.5627C156.464 38.7918 156.796 39.1302 157.014 39.5383H157.124V35.4875H158.601V45.7414H157.186V44.5761H157.069C156.834 44.9815 156.491 45.3157 156.076 45.5425C155.662 45.7693 155.193 45.8801 154.719 45.8629C152.815 45.8629 151.612 44.3866 151.612 42.0508V42.051ZM153.138 42.051C153.138 43.6151 153.886 44.5565 155.138 44.5565C156.382 44.5565 157.152 43.6016 157.152 42.0572C157.152 40.5203 156.374 39.5519 155.138 39.5519C153.894 39.5519 153.138 40.4995 153.138 42.051ZM164.712 42.051C164.665 41.5663 164.721 41.0773 164.877 40.6154C165.033 40.1534 165.286 39.7286 165.618 39.3683C165.95 39.0081 166.355 38.7202 166.807 38.5232C167.259 38.3262 167.747 38.2245 168.242 38.2245C168.736 38.2245 169.224 38.3262 169.676 38.5232C170.128 38.7202 170.533 39.0081 170.865 39.3683C171.198 39.7286 171.45 40.1534 171.606 40.6154C171.762 41.0773 171.818 41.5663 171.771 42.051C171.819 42.5362 171.763 43.026 171.608 43.4888C171.452 43.9516 171.2 44.3773 170.868 44.7384C170.536 45.0995 170.13 45.388 169.678 45.5855C169.226 45.783 168.736 45.885 168.242 45.885C167.747 45.885 167.258 45.783 166.805 45.5855C166.353 45.388 165.947 45.0995 165.615 44.7384C165.283 44.3773 165.031 43.9516 164.875 43.4888C164.72 43.026 164.664 42.5362 164.712 42.051ZM170.252 42.051C170.252 40.4523 169.523 39.5175 168.244 39.5175C166.96 39.5175 166.238 40.4523 166.238 42.051C166.238 43.6624 166.96 44.5901 168.244 44.5901C169.523 44.5901 170.252 43.656 170.252 42.051ZM173.753 38.3668H175.175V39.5383H175.285C175.472 39.1175 175.788 38.7647 176.188 38.5292C176.589 38.2936 177.054 38.187 177.518 38.2243C177.882 38.1973 178.248 38.2514 178.588 38.3826C178.928 38.5138 179.234 38.7187 179.483 38.9821C179.732 39.2455 179.917 39.5607 180.025 39.9044C180.134 40.248 180.162 40.6113 180.109 40.9673V45.7414H178.632V41.3328C178.632 40.1477 178.109 39.5583 177.017 39.5583C176.77 39.5469 176.523 39.5884 176.293 39.6799C176.064 39.7713 175.857 39.9105 175.687 40.0881C175.518 40.2656 175.389 40.4771 175.31 40.7083C175.231 40.9394 175.204 41.1846 175.23 41.4271V45.7416H173.753L173.753 38.3668ZM188.455 36.5306V38.4003H190.076V39.6262H188.455V43.4184C188.455 44.1909 188.778 44.5293 189.513 44.5293C189.701 44.5286 189.889 44.5174 190.076 44.4956V45.708C189.811 45.7548 189.542 45.7796 189.273 45.7824C187.63 45.7824 186.976 45.2129 186.976 43.7911V39.6262H185.788V38.4002H186.976V36.5308L188.455 36.5306ZM192.094 35.4877H193.558V39.5519H193.674C193.871 39.1271 194.195 38.7724 194.604 38.536C195.012 38.2995 195.484 38.1929 195.956 38.2307C196.319 38.2112 196.681 38.2708 197.017 38.4052C197.353 38.5396 197.655 38.7454 197.901 39.008C198.148 39.2707 198.332 39.5836 198.441 39.9245C198.551 40.2654 198.582 40.6259 198.534 40.9802V45.7416H197.055V41.3392C197.055 40.1611 196.499 39.5647 195.455 39.5647C195.201 39.5442 194.946 39.5786 194.707 39.6654C194.468 39.7523 194.251 39.8896 194.072 40.0677C193.892 40.2458 193.754 40.4604 193.668 40.6964C193.581 40.9325 193.548 41.1843 193.571 41.4344V45.7416H192.094V35.4877ZM207.146 43.7502C206.945 44.4242 206.511 45.0073 205.918 45.3974C205.325 45.7874 204.612 45.9596 203.903 45.8839C203.41 45.8967 202.92 45.8037 202.467 45.6112C202.014 45.4187 201.609 45.1314 201.28 44.7692C200.951 44.4071 200.706 43.9787 200.562 43.5138C200.418 43.049 200.378 42.5588 200.446 42.0774C200.38 41.5944 200.421 41.1031 200.564 40.6369C200.708 40.1706 200.952 39.7402 201.279 39.3749C201.606 39.0095 202.009 38.7177 202.461 38.5192C202.913 38.3207 203.402 38.2201 203.897 38.2243C205.979 38.2243 207.235 39.6262 207.235 41.9421V42.4499H201.951V42.5315C201.927 42.8021 201.962 43.0746 202.052 43.3313C202.142 43.588 202.285 43.8234 202.473 44.0223C202.661 44.2212 202.888 44.3793 203.142 44.4864C203.395 44.5935 203.668 44.6473 203.944 44.6443C204.297 44.6861 204.655 44.6234 204.972 44.4642C205.289 44.305 205.551 44.0564 205.724 43.7502H207.146ZM201.951 41.3736H205.731C205.749 41.1261 205.715 40.8775 205.63 40.6437C205.546 40.41 205.412 40.1963 205.239 40.0164C205.065 39.8364 204.856 39.6943 204.623 39.599C204.391 39.5037 204.14 39.4574 203.888 39.4631C203.633 39.4599 203.38 39.5072 203.143 39.6021C202.906 39.697 202.691 39.8376 202.511 40.0157C202.33 40.1937 202.187 40.4056 202.091 40.6388C201.995 40.872 201.947 41.1219 201.951 41.3736Z" fill="#252B33"/>
<defs>
<filter id="filter0_d_1_314" x="0" y="0" width="265" height="120" filterUnits="userSpaceOnUse" color-interpolation-filters="sRGB">
<feFlood flood-opacity="0" result="BackgroundImageFix"/>
<feColorMatrix in="SourceAlpha" type="matrix" values="0 0 0 0 0 0 0 0 0 0 0 0 0 0 0 0 0 0 127 0" result="hardAlpha"/>
<feOffset dy="4"/>
<feGaussianBlur stdDeviation="15"/>
<feComposite in2="hardAlpha" operator="out"/>
<feColorMatrix type="matrix" values="0 0 0 0 0 0 0 0 0 0 0 0 0 0 0 0 0 0 0.05 0"/>
<feBlend mode="normal" in2="BackgroundImageFix" result="effect1_dropShadow_1_314"/>
<feBlend mode="normal" in="SourceGraphic" in2="effect1_dropShadow_1_314" result="shape"/>
</filter>
</defs>
</svg>
