<svg width="21" height="20" viewBox="0 0 21 20" fill="none" xmlns="http://www.w3.org/2000/svg">
<path d="M10.2273 6.66525C8.39109 6.66525 6.8926 8.16376 6.8926 10C6.8926 11.8362 8.39109 13.3348 10.2273 13.3348C12.0635 13.3348 13.562 11.8362 13.562 10C13.562 8.16376 12.0635 6.66525 10.2273 6.66525ZM20.2289 10C20.2289 8.61907 20.2414 7.25064 20.1638 5.87221C20.0863 4.27113 19.721 2.85017 18.5503 1.67938C17.377 0.506085 15.9586 0.14334 14.3575 0.065788C12.9766 -0.0117644 11.6082 0.000744113 10.2298 0.000744113C8.84889 0.000744113 7.48049 -0.0117644 6.10208 0.065788C4.50103 0.14334 3.0801 0.508587 1.90933 1.67938C0.736057 2.85267 0.373318 4.27113 0.295767 5.87221C0.218216 7.25314 0.230725 8.62157 0.230725 10C0.230725 11.3784 0.218216 12.7494 0.295767 14.1278C0.373318 15.7289 0.738558 17.1498 1.90933 18.3206C3.0826 19.4939 4.50103 19.8567 6.10208 19.9342C7.48299 20.0118 8.85139 19.9993 10.2298 19.9993C11.6107 19.9993 12.9791 20.0118 14.3575 19.9342C15.9586 19.8567 17.3795 19.4914 18.5503 18.3206C19.7235 17.1473 20.0863 15.7289 20.1638 14.1278C20.2439 12.7494 20.2289 11.3809 20.2289 10ZM10.2273 15.131C7.38793 15.131 5.09642 12.8394 5.09642 10C5.09642 7.16058 7.38793 4.86903 10.2273 4.86903C13.0667 4.86903 15.3582 7.16058 15.3582 10C15.3582 12.8394 13.0667 15.131 10.2273 15.131ZM15.5683 5.8572C14.9054 5.8572 14.37 5.32184 14.37 4.65889C14.37 3.99594 14.9054 3.46058 15.5683 3.46058C16.2312 3.46058 16.7666 3.99594 16.7666 4.65889C16.7668 4.81631 16.7359 4.97222 16.6758 5.1177C16.6156 5.26317 16.5274 5.39535 16.4161 5.50666C16.3047 5.61798 16.1726 5.70624 16.0271 5.76639C15.8816 5.82654 15.7257 5.8574 15.5683 5.8572Z" fill="#71AA38"/>
</svg>
