<svg width="265" height="120" viewBox="0 0 265 120" fill="none" xmlns="http://www.w3.org/2000/svg">
<g filter="url(#filter0_d_1_292)">
<rect x="30" y="26" width="205" height="60" rx="10" fill="white"/>
</g>
<path fill-rule="evenodd" clip-rule="evenodd" d="M143.823 76.4029C143.064 75.7964 142.458 74.735 142.155 74.1285L144.581 73.0671C144.732 73.3704 145.036 73.8253 145.339 74.2801C145.945 74.8866 146.855 75.4931 147.765 75.4931C148.675 75.4931 149.736 75.0383 150.342 74.2801C150.797 73.522 151.101 72.7639 151.101 71.7025V70.7928C149.281 73.0671 145.49 72.7639 143.368 70.3379C141.093 67.9119 141.093 63.818 143.368 61.392C145.642 59.1177 148.978 58.8144 150.949 60.9372V59.8758H153.527V71.2476C153.527 74.1285 152.465 75.7964 151.101 76.8578C150.191 77.6159 148.826 77.9191 147.613 77.9191C146.249 77.7675 144.884 77.3126 143.823 76.4029ZM207.353 77.0094L209.931 70.9444L205.382 60.4823H207.96L211.144 67.9119L214.328 60.4823H216.906L209.931 77.0094H207.353ZM195.072 71.2476C194.314 70.4895 194.01 69.4281 194.01 68.3668C194.01 67.457 194.314 66.5473 194.92 65.9408C195.981 64.8794 197.498 64.4245 199.166 64.4245C200.227 64.4245 201.137 64.5762 201.895 65.031C201.895 63.2115 200.379 62.4534 199.166 62.4534C198.104 62.4534 197.043 63.0599 196.588 64.1213L194.314 63.2115C194.768 62.1502 195.981 60.179 199.014 60.179C200.53 60.179 202.046 60.6339 202.956 61.6953C203.866 62.7567 204.169 63.9697 204.169 65.6375V72.0058H201.592V70.9444C201.288 71.3993 200.682 71.7025 200.227 72.0058C199.62 72.309 198.862 72.4606 198.104 72.4606C197.194 72.309 195.83 72.0058 195.072 71.2476ZM114.256 65.7892C114.256 62.7567 116.53 59.4209 120.624 59.4209C124.566 59.4209 126.992 62.7567 126.992 65.7892C126.992 68.8217 124.718 72.1574 120.624 72.1574C116.53 72.1574 114.256 68.8217 114.256 65.7892ZM127.902 65.7892C127.902 62.7567 130.176 59.4209 134.27 59.4209C138.212 59.4209 140.638 62.7567 140.638 65.7892C140.638 68.8217 138.364 72.1574 134.27 72.1574C130.328 72.1574 127.902 68.8217 127.902 65.7892ZM97.1221 69.1249C93.3315 65.3343 93.4831 59.1177 97.2738 55.1754C99.2449 53.2043 101.671 52.2946 104.249 52.2946C106.675 52.2946 109.1 53.2043 110.92 55.0238L109.1 56.9949C106.371 54.2657 101.974 54.4173 99.3965 57.1465C96.6673 60.0274 96.6673 64.4245 99.3965 67.3054C102.126 70.1863 106.674 70.3379 109.404 67.457C110.313 66.5473 110.617 65.3343 110.768 64.1213H104.4V61.392H113.346C113.498 61.9985 113.498 62.7567 113.498 63.5148C113.498 65.7892 112.588 68.0635 111.072 69.5798C109.404 71.2477 106.978 72.1574 104.552 72.1574C101.823 72.0058 99.0933 71.096 97.1221 69.1249ZM161.259 70.1863C158.985 67.7603 158.985 63.6664 161.259 61.0888C163.534 58.6628 167.324 58.6628 169.447 61.0888C170.205 61.8469 170.66 62.9083 171.115 63.9697L162.776 67.457C163.231 68.5184 164.292 69.4282 165.808 69.4282C167.173 69.4282 168.083 68.9733 168.992 67.6087L171.267 69.1249C170.963 69.4281 170.66 69.7314 170.509 70.0347C167.931 72.6123 163.534 72.6123 161.259 70.1863ZM177.028 72.0058V55.1754H182.487C185.671 55.1754 188.249 57.4498 188.249 60.179C188.249 62.9083 185.974 65.1827 183.093 65.1827H179.758V71.8541H177.028V72.0058ZM189.765 72.0058V55.1754H192.342V72.0058H189.765ZM155.498 71.7025V52.9011H158.227V71.7025H155.498ZM201.743 67.0022C201.137 66.5473 200.227 66.3957 199.317 66.3957C197.498 66.3957 196.436 67.3054 196.436 68.3668C196.436 69.4281 197.498 70.0347 198.559 70.0347C200.075 70.0347 201.743 68.8217 201.743 67.0022ZM124.111 65.7892C124.111 63.9697 122.898 61.9985 120.624 61.9985C118.35 61.9985 117.137 63.9697 117.137 65.7892C117.137 67.6087 118.35 69.5798 120.624 69.5798C122.747 69.5798 124.111 67.6087 124.111 65.7892ZM137.758 65.7892C137.758 63.9697 136.545 61.9985 134.27 61.9985C131.996 61.9985 130.783 63.9697 130.783 65.7892C130.783 67.6087 131.996 69.5798 134.27 69.5798C136.545 69.5798 137.758 67.6087 137.758 65.7892ZM151.252 66.8505C151.252 66.6989 151.252 66.5473 151.404 66.3957C151.404 66.244 151.404 65.9408 151.404 65.7892C151.404 65.6375 151.404 65.3343 151.404 65.1827V65.031C151.404 64.8794 151.252 64.5762 151.252 64.4245C150.797 62.9083 149.433 61.8469 148.068 61.8469C146.249 61.8469 144.732 63.6664 144.732 65.6375C144.732 67.7603 146.249 69.4282 148.22 69.4282C149.433 69.5798 150.646 68.5184 151.252 66.8505ZM162.321 65.4859L167.931 63.0599C167.324 61.9985 166.415 61.6953 165.657 61.6953C163.382 61.8469 162.018 64.2729 162.321 65.4859ZM185.519 60.3307C185.519 58.8144 184.306 57.753 182.639 57.753H179.606V63.0599H182.79C184.306 63.0599 185.519 61.8469 185.519 60.3307Z" fill="#252B33"/>
<path d="M94.9995 40.3163C94.9995 37.5871 96.9706 35.9192 99.3966 35.9192C101.064 35.9192 102.126 36.6773 102.884 37.7387L101.671 38.4968C101.216 37.8903 100.458 37.4354 99.3966 37.4354C97.7287 37.4354 96.5157 38.6484 96.5157 40.4679C96.5157 42.2874 97.7287 43.5004 99.3966 43.5004C100.306 43.5004 101.064 43.0456 101.368 42.7423V41.3777H98.9417V40.0131H103.036V43.1972C102.277 44.1069 101.064 44.7134 99.5482 44.7134C96.9706 44.7134 94.9995 42.8939 94.9995 40.3163Z" fill="#252B33"/>
<path d="M104.855 44.562V36.071H110.617V37.4357H106.22V39.5584H110.465V40.923H106.22V43.349H110.617V44.7137L104.855 44.562Z" fill="#252B33"/>
<path d="M114.862 44.562V37.4357H112.285V36.071H118.956V37.4357H116.378V44.562H114.862Z" fill="#252B33"/>
<path d="M124.111 44.562V36.071H125.628V44.562H124.111Z" fill="#252B33"/>
<path d="M129.721 44.562V37.4357H127.144V36.071H133.815V37.4357H131.238V44.562H129.721Z" fill="#252B33"/>
<path d="M138.667 40.3163C138.667 37.7387 140.487 35.9192 143.064 35.9192C145.642 35.9192 147.462 37.7387 147.462 40.3163C147.462 42.8939 145.642 44.7134 143.064 44.7134C140.487 44.7134 138.667 42.7423 138.667 40.3163ZM145.794 40.3163C145.794 38.4968 144.732 37.2838 142.913 37.2838C141.245 37.2838 140.032 38.6484 140.032 40.3163C140.032 42.1358 141.093 43.3488 142.913 43.3488C144.732 43.3488 145.794 41.9842 145.794 40.3163Z" fill="#252B33"/>
<path d="M155.043 44.562L150.646 38.497V44.562H149.129V36.071H150.646L155.043 41.9844V36.071H156.559V44.562H155.043Z" fill="#252B33"/>
<path fill-rule="evenodd" clip-rule="evenodd" d="M48.6902 36.8638C48.2519 37.3348 48 38.0599 48 39.002V72.5127C48 73.4548 48.2519 74.1798 48.7066 74.6345L48.8254 74.7348L67.6022 55.958V55.5361L48.809 36.7634L48.6902 36.8638Z" fill="url(#paint0_linear_1_292)"/>
<path fill-rule="evenodd" clip-rule="evenodd" d="M73.8488 62.2412L67.5858 55.9761V55.5378L73.8509 49.2727L73.9861 49.3567L81.396 53.5675C83.5178 54.7636 83.5178 56.7339 81.396 57.9463L73.9861 62.1572C73.984 62.1572 73.8488 62.2412 73.8488 62.2412Z" fill="url(#paint1_linear_1_292)"/>
<path fill-rule="evenodd" clip-rule="evenodd" d="M73.984 62.1576L67.5858 55.7573L48.6902 74.6529C49.3804 75.3943 50.5417 75.4783 51.8401 74.7533L73.984 62.1576Z" fill="url(#paint2_linear_1_292)"/>
<path fill-rule="evenodd" clip-rule="evenodd" d="M73.984 49.3592L51.8401 36.7799C50.5437 36.0385 49.3804 36.1389 48.6902 36.8803L67.5837 55.7574L73.984 49.3592Z" fill="url(#paint3_linear_1_292)"/>
<path opacity="0.2" fill-rule="evenodd" clip-rule="evenodd" d="M73.8488 62.0222L51.8566 74.5176C50.6277 75.2241 49.532 75.175 48.8254 74.5339L48.7066 74.6527L48.8254 74.7531C49.532 75.3921 50.6277 75.4433 51.8566 74.7367L74.0004 62.1574L73.8488 62.0222Z" fill="#252B33"/>
<path opacity="0.12" fill-rule="evenodd" clip-rule="evenodd" d="M81.394 57.7276L73.8325 62.0224L73.9676 62.1576L81.3776 57.9467C82.4385 57.3405 82.9608 56.5499 82.9608 55.7573C82.8932 56.4823 82.3545 57.1725 81.394 57.7276Z" fill="#252B33"/>
<path opacity="0.25" fill-rule="evenodd" clip-rule="evenodd" d="M51.8402 36.9987L81.394 53.7888C82.3545 54.3275 82.8932 55.0341 82.9771 55.7591C82.9771 54.9685 82.4549 54.1759 81.394 53.5697L51.8402 36.7795C49.7183 35.5671 48 36.5768 48 39.0017V39.2208C48 36.7959 49.7183 35.8026 51.8402 36.9987Z" fill="white"/>
<defs>
<filter id="filter0_d_1_292" x="0" y="0" width="265" height="120" filterUnits="userSpaceOnUse" color-interpolation-filters="sRGB">
<feFlood flood-opacity="0" result="BackgroundImageFix"/>
<feColorMatrix in="SourceAlpha" type="matrix" values="0 0 0 0 0 0 0 0 0 0 0 0 0 0 0 0 0 0 127 0" result="hardAlpha"/>
<feOffset dy="4"/>
<feGaussianBlur stdDeviation="15"/>
<feComposite in2="hardAlpha" operator="out"/>
<feColorMatrix type="matrix" values="0 0 0 0 0 0 0 0 0 0 0 0 0 0 0 0 0 0 0.05 0"/>
<feBlend mode="normal" in2="BackgroundImageFix" result="effect1_dropShadow_1_292"/>
<feBlend mode="normal" in="SourceGraphic" in2="effect1_dropShadow_1_292" result="shape"/>
</filter>
<linearGradient id="paint0_linear_1_292" x1="65.9161" y1="38.6418" x2="35.8389" y2="46.6559" gradientUnits="userSpaceOnUse">
<stop stop-color="#00A0FF"/>
<stop offset="0.007" stop-color="#00A1FF"/>
<stop offset="0.26" stop-color="#00BEFF"/>
<stop offset="0.512" stop-color="#00D2FF"/>
<stop offset="0.76" stop-color="#00DFFF"/>
<stop offset="1" stop-color="#00E3FF"/>
</linearGradient>
<linearGradient id="paint1_linear_1_292" x1="84.1571" y1="55.7579" x2="47.4843" y2="55.7579" gradientUnits="userSpaceOnUse">
<stop stop-color="#FFE000"/>
<stop offset="0.409" stop-color="#FFBD00"/>
<stop offset="0.775" stop-color="#FFA500"/>
<stop offset="1" stop-color="#FF9C00"/>
</linearGradient>
<linearGradient id="paint2_linear_1_292" x1="70.5048" y1="59.2391" x2="46.3587" y2="99.8785" gradientUnits="userSpaceOnUse">
<stop stop-color="#FF3A44"/>
<stop offset="1" stop-color="#C31162"/>
</linearGradient>
<linearGradient id="paint3_linear_1_292" x1="43.9337" y1="25.7166" x2="54.706" y2="43.8668" gradientUnits="userSpaceOnUse">
<stop stop-color="#32A071"/>
<stop offset="0.069" stop-color="#2DA771"/>
<stop offset="0.476" stop-color="#15CF74"/>
<stop offset="0.801" stop-color="#06E775"/>
<stop offset="1" stop-color="#00F076"/>
</linearGradient>
</defs>
</svg>
